<?xml version="1.0" encoding="UTF-8" standalone="no"?>
<!-- Created with Inkscape (http://www.inkscape.org/) -->
<svg
   xmlns:svg="http://www.w3.org/2000/svg"
   xmlns="http://www.w3.org/2000/svg"
   version="1.0"
   width="766"
   height="179"
   id="svg3132">
  <defs
     id="defs3134">
    <clipPath
       id="clipPath3203">
      <path
         d="M 0,841.89 L 1785.84,841.89 L 1785.84,0 L 0,0 L 0,841.89 z"
         id="path3205" />
    </clipPath>
    <clipPath
       id="clipPath3197">
      <path
         d="M 1785.83,841.89 L 0,841.89 L 0,0 L 1785.83,0 L 1785.83,841.89 z"
         id="path3199" />
    </clipPath>
  </defs>
  <g
     transform="translate(-0.33376,0.3602666)"
     id="layer1">
    <g
       transform="matrix(4.6850163,0,0,4.6850163,-1798.5453,-1186.8815)"
       id="g3349">
      <path
         d="M 411.96304,273.85781 C 412.28429,271.41781 413.80429,269.30156 416.74929,269.30156 C 419.64929,269.30156 421.16804,271.41781 421.49054,273.85781 L 411.96304,273.85781 z M 407.77429,286.19406 C 409.93679,288.21906 413.15929,289.37031 416.74929,289.37031 C 425.44929,289.37031 428.67179,284.30656 429.36179,281.17656 L 421.53679,281.17656 C 421.53679,281.17656 420.66179,283.66156 417.07179,283.66156 C 413.80429,283.66156 412.28429,281.63656 411.96304,278.73656 L 429.49929,278.73656 C 429.49929,278.73656 429.54554,278.32281 429.54554,277.54031 C 429.54554,268.84031 424.57429,263.86906 416.74929,263.86906 C 413.15929,263.86906 409.93679,265.02031 407.77429,267.04531 C 405.56429,265.02031 402.52679,263.86906 398.93679,263.86906 C 391.11179,263.86906 386.04804,268.93281 386.04804,276.61906 C 386.04804,284.30656 391.11179,289.37031 398.93679,289.37031 C 402.52679,289.37031 405.56429,288.21906 407.77429,286.19406 z M 403.72304,276.61906 C 403.72304,280.99156 401.51429,283.20156 398.93679,283.20156 C 396.35929,283.20156 394.14929,280.99156 394.14929,276.61906 C 394.14929,272.24656 396.35929,270.03781 398.93679,270.03781 C 401.51429,270.03781 403.72304,272.24656 403.72304,276.61906 z M 460.38929,261.61406 L 468.35242,261.61406 L 468.35242,255.35418 L 460.38929,255.35418 L 460.38929,261.61406 z M 460.38929,288.67906 L 468.35242,288.67906 L 468.35242,264.56031 L 460.38929,264.56031 L 460.38929,288.67906 z M 431.50554,288.67906 L 439.51554,288.67906 L 439.51554,278.04656 C 439.51554,273.35156 441.26429,271.60281 445.03929,271.60281 C 446.37304,271.60281 447.61679,271.78656 447.61679,271.78656 L 447.61679,264.00781 C 447.61679,264.00781 446.92554,263.86906 445.86804,263.86906 C 440.34429,263.86906 439.33054,268.65656 439.33054,268.65656 L 439.23929,268.65656 L 439.23929,264.56031 L 431.50554,264.56031 L 431.50554,288.67906 z M 449.38929,288.67906 L 457.35204,288.67906 L 457.35204,255.35406 L 449.38929,255.35406 L 449.38929,288.67906 z M 494.06804,276.61906 C 494.06804,284.30656 499.13179,289.37031 507.14054,289.37031 C 515.14929,289.37031 520.21304,284.30656 520.21304,276.61906 C 520.21304,268.93281 515.14929,263.86906 507.14054,263.86906 C 499.13179,263.86906 494.06804,268.93281 494.06804,276.61906 z M 512.11179,276.61906 C 512.11179,280.99156 509.90304,283.20156 507.14054,283.20156 C 504.37929,283.20156 502.17054,280.99156 502.17054,276.61906 C 502.17054,272.24656 504.37929,270.03781 507.14054,270.03781 C 509.90304,270.03781 512.11179,272.24656 512.11179,276.61906 z M 486.76429,288.67906 L 495.97054,288.67906 L 487.17804,273.58156 L 495.69429,264.56031 L 486.07429,264.56031 L 479.07804,273.25906 L 479.07804,255.35406 L 471.39054,255.35406 L 471.39054,288.67906 L 479.07804,288.67906 L 479.07804,282.05156 L 481.79304,279.05906 L 486.76429,288.67906 z M 537.46429,288.67906 L 537.46429,274.45656 C 537.46429,271.41781 536.22179,270.17531 534.01179,270.17531 C 531.80304,270.17531 529.86929,272.10906 529.86929,275.05531 L 529.86929,288.67906 L 522.09054,288.67906 L 522.09054,264.56031 L 529.59304,264.56031 L 529.59304,268.24156 L 529.68554,268.24156 C 529.68554,268.24156 531.34304,263.86906 536.86554,263.86906 C 542.38929,263.86906 545.38054,266.86156 545.38054,273.12156 L 545.38054,288.67906 L 537.46429,288.67906"
         id="path3259"
         style="fill:#e33a1d;fill-opacity:1;fill-rule:nonzero;stroke:none" />
    </g>
  </g>
</svg>
