<svg id="Layer_1" data-name="Layer 1" xmlns="http://www.w3.org/2000/svg" viewBox="0 0 220 33"><defs><style>.cls-1{font-size:35.71px;font-family:RussoOne-Regular, Russo One;}.cls-1,.cls-3{fill:#39f;}.cls-2{letter-spacing:-0.04em;}</style></defs><title>Artboard 1</title><text class="cls-1" transform="translate(51.12 29)">forme<tspan class="cls-2" x="109.45" y="0">r</tspan><tspan x="124.45" y="0">as</tspan></text><path class="cls-3" d="M48,28.17s.11-.23.28-.66a16.51,16.51,0,0,0,.6-2,17.4,17.4,0,0,0,.25-7.46,13.1,13.1,0,0,0-6.38-9,12.79,12.79,0,0,0-1.39-.73L40.66,8l-.74-.28a15.62,15.62,0,0,0-1.5-.49L38,7.17l-.1,0h0l-.09,0-.18,0-.71-.16c-.45-.11-1-.2-1.52-.29s-1-.16-1.55-.23c-1-.12-2.05-.21-3.07-.26-2-.09-4.07-.07-6,0s-3.89.25-5.72.39-3.58.29-5.22.36a23.8,23.8,0,0,1-4.49-.16A7.5,7.5,0,0,1,6,5.54,5.22,5.22,0,0,1,4.29,3.36a6.81,6.81,0,0,1-.39-1,5,5,0,0,1-.21-.82L3.53.8l-.08.72a5.35,5.35,0,0,0,0,.88c0,.17,0,.36,0,.56s.06.41.09.64A6,6,0,0,0,4.9,6.7,8.7,8.7,0,0,0,8.73,9.07a21.7,21.7,0,0,0,5,.94c1.76.15,3.58.19,5.45.19s3.77,0,5.68,0,3.84,0,5.73.09c1,0,1.89.1,2.82.21.46.05.93.09,1.37.16s.86.11,1.36.21l.72.13L37,11h0l.08,0,.32.08a12.8,12.8,0,0,1,1.25.32l.61.19.58.22a12,12,0,0,1,1.13.48,11.42,11.42,0,0,1,3.67,2.76,12.3,12.3,0,0,1,2.17,3.66,18,18,0,0,1,1,3.69,25.56,25.56,0,0,1,.27,3c0,.85,0,1.53,0,2S48,28.17,48,28.17Z"/><path class="cls-3" d="M45.06,23.38c-.18-4.52-2.61-10.63-14.38-10.79-.3,0-.61,0-.91,0-3,.24-20.69,1.42-24.86-2.75,0,0,4.64,9.34,23.75,9.34,0,0-.52,3.79-12.22,2.41,0,0,1,6.37,18.59,3.61,0,0,.34,3.45-10.33,4a15.16,15.16,0,0,0,16.07,1.29A7.6,7.6,0,0,0,45.06,23.38Z"/></svg>